<svg xmlns="http://www.w3.org/2000/svg" width="42" height="44" viewBox="0 0 42 44">
   <path fill="#FFF" fill-rule="nonzero" d="M.79 14.837C5.074-1.84 31.99-4.432 39.991 6.93c6.609 9.386-5.214 11.745-5.178 27.304.023 9.688-8.367 10.473-14.067 9.402C7.433 41.135-3.009 29.616.79 14.837zm17.542 4.52c-3.21.008-5.34 2.595-5.332 5.833.007 3.239 2.148 5.819 5.357 5.81 3.203-.007 5.329-2.592 5.322-5.834-.008-3.242-2.146-5.816-5.347-5.809zm8.706-.014c-1.076.003-1.95 2.611-1.942 5.826.007 3.215.89 5.818 1.968 5.815 1.077-.004 1.945-2.61 1.936-5.824-.01-3.215-.884-5.819-1.962-5.817zm-8.7 2.765c1.472-.003 2.284 1.488 2.287 3.047.003 1.558-.806 3.098-2.274 3.101-1.472.004-2.29-1.531-2.293-3.091-.004-1.56.808-3.053 2.28-3.057zm7.935-7.959a1.95 1.95 0 0 0-1.182 1.803c0 .517.203 1.013.563 1.378.36.365.847.57 1.356.57.776 0 1.475-.476 1.771-1.205a1.974 1.974 0 0 0-.417-2.125 1.895 1.895 0 0 0-2.09-.42z"/>
</svg>
